<mxfile host="65bd71144e">
    <diagram id="nAW8TVtmyQRJXyLAPGmM" name="Page-1">
        <mxGraphModel dx="596" dy="716" grid="0" gridSize="10" guides="0" tooltips="1" connect="1" arrows="1" fold="1" page="0" pageScale="1" pageWidth="1169" pageHeight="1654" math="0" shadow="0">
            <root>
                <mxCell id="0"/>
                <mxCell id="1" parent="0"/>
                <mxCell id="3" value="Gr1" style="shape=cylinder3;whiteSpace=wrap;html=1;boundedLbl=1;backgroundOutline=1;size=15;hachureGap=4;fontFamily=Architects Daughter;fontSource=https%3A%2F%2Ffonts.googleapis.com%2Fcss%3Ffamily%3DArchitects%2BDaughter;fontSize=20;" vertex="1" parent="1">
                    <mxGeometry x="220" y="160" width="60" height="80" as="geometry"/>
                </mxCell>
                <mxCell id="4" value="Gr2" style="shape=cylinder3;whiteSpace=wrap;html=1;boundedLbl=1;backgroundOutline=1;size=15;hachureGap=4;fontFamily=Architects Daughter;fontSource=https%3A%2F%2Ffonts.googleapis.com%2Fcss%3Ffamily%3DArchitects%2BDaughter;fontSize=20;" vertex="1" parent="1">
                    <mxGeometry x="360" y="160" width="60" height="80" as="geometry"/>
                </mxCell>
                <mxCell id="5" value="Gr3" style="shape=cylinder3;whiteSpace=wrap;html=1;boundedLbl=1;backgroundOutline=1;size=15;hachureGap=4;fontFamily=Architects Daughter;fontSource=https%3A%2F%2Ffonts.googleapis.com%2Fcss%3Ffamily%3DArchitects%2BDaughter;fontSize=20;" vertex="1" parent="1">
                    <mxGeometry x="500" y="160" width="60" height="80" as="geometry"/>
                </mxCell>
                <mxCell id="6" value="Gr4" style="shape=cylinder3;whiteSpace=wrap;html=1;boundedLbl=1;backgroundOutline=1;size=15;hachureGap=4;fontFamily=Architects Daughter;fontSource=https%3A%2F%2Ffonts.googleapis.com%2Fcss%3Ffamily%3DArchitects%2BDaughter;fontSize=20;" vertex="1" parent="1">
                    <mxGeometry x="630" y="160" width="60" height="80" as="geometry"/>
                </mxCell>
                <mxCell id="7" value="&lt;pre&gt;db1-1, db1-2,db1-3&lt;/pre&gt;&lt;pre&gt;&lt;pre style=&quot;border-color: var(--border-color);&quot;&gt;db2-1, db2-2,db2-3&lt;/pre&gt;&lt;pre style=&quot;border-color: var(--border-color);&quot;&gt;db3-1, db3-2,db3-3&lt;/pre&gt;&lt;/pre&gt;" style="rounded=1;whiteSpace=wrap;html=1;hachureGap=4;fontFamily=Architects Daughter;fontSource=https%3A%2F%2Ffonts.googleapis.com%2Fcss%3Ffamily%3DArchitects%2BDaughter;fontSize=20;" vertex="1" parent="1">
                    <mxGeometry x="190" y="10" width="490" height="130" as="geometry"/>
                </mxCell>
                <mxCell id="8" value="Admin -- Dashboard Writers -- create the dashboards- send it for approval&lt;br&gt;Reviewers approves and publish get ready for consumption" style="rounded=1;whiteSpace=wrap;html=1;hachureGap=4;fontFamily=Architects Daughter;fontSource=https%3A%2F%2Ffonts.googleapis.com%2Fcss%3Ffamily%3DArchitects%2BDaughter;fontSize=20;" vertex="1" parent="1">
                    <mxGeometry x="190" y="-110" width="490" height="100" as="geometry"/>
                </mxCell>
                <mxCell id="9" value="Dashboard.js -- will have that available catalogue&lt;br&gt;Create Views&amp;nbsp;&lt;br&gt;Readymade Views 10X&amp;nbsp;" style="rounded=1;whiteSpace=wrap;html=1;hachureGap=4;fontFamily=Architects Daughter;fontSource=https%3A%2F%2Ffonts.googleapis.com%2Fcss%3Ffamily%3DArchitects%2BDaughter;fontSize=20;" vertex="1" parent="1">
                    <mxGeometry x="190" y="-220" width="700" height="90" as="geometry"/>
                </mxCell>
                <mxCell id="11" value="" style="swimlane;startSize=0;hachureGap=4;fontFamily=Architects Daughter;fontSource=https%3A%2F%2Ffonts.googleapis.com%2Fcss%3Ffamily%3DArchitects%2BDaughter;fontSize=20;" vertex="1" parent="1">
                    <mxGeometry x="700" y="-110" width="200" height="240" as="geometry"/>
                </mxCell>
                <mxCell id="12" value="50 Engineers" style="text;html=1;align=center;verticalAlign=middle;resizable=0;points=[];autosize=1;strokeColor=none;fillColor=none;fontSize=20;fontFamily=Architects Daughter;hachureGap=4;fontSource=https%3A%2F%2Ffonts.googleapis.com%2Fcss%3Ffamily%3DArchitects%2BDaughter;" vertex="1" parent="11">
                    <mxGeometry x="20" y="60" width="150" height="40" as="geometry"/>
                </mxCell>
            </root>
        </mxGraphModel>
    </diagram>
</mxfile>